<svg xmlns="http://www.w3.org/2000/svg" viewBox="0 0 320 408.66" preserveAspectRatio="xMidYMid meet">
  <defs>
    <style>
      .cls-1 {
		fill: #f24900;
      }
	  @keyframes colorFlow {
        0%, 100% {
            fill: gray; /* Starting and ending color */
        }

        50% {
            fill: #f24900; /* Middle color */
        }
    }
	.ccc{
		animation: colorFlow 1s linear infinite;
	 }
    </style>
  </defs>
        <g>
          <path class="cls-1 ccc" d="M166.44,305.25h-1a33.45,33.45,0,0,1-24.71-12.05L65.8,216.11C11.15,159.9,11.17,92,65.84,38.8c28.1-27.32,60.24-40.65,93-38.59,30.26,1.91,59.55,16.6,84.72,42.49L319,120.28A7,7,0,0,1,309,130L233.58,52.43c-22.71-23.37-48.86-36.62-75.6-38.3C129.28,12.3,100.76,24.3,75.57,48.8c-49.25,47.88-49.16,106.79.23,157.59l75.54,77.74a19.48,19.48,0,0,0,14.51,7.17c5.14.07,9.78-1.66,12.82-5a16.56,16.56,0,0,0,4-12.23,19.41,19.41,0,0,0-6.86-13.67l-.48-.45L101,183.57c-16.27-16.73-25-35.44-25.37-54.08-.34-19.38,8.46-38.36,25.47-54.89,34.32-33.37,75.15-32.36,109.22,2.69l24.5,25.19,8.08,8.32,17.22,17.7c.24.26,24.22,24.91,24.5,25.21a7,7,0,1,1-10,9.69l-24.45-25.15-17.24-17.73-8.19-8.43L200.34,87c-28.4-29.22-61-30.1-89.5-2.41-14.38,14-21.52,29-21.25,44.64.27,15,7.68,30.46,21.43,44.61L185.08,250a33.12,33.12,0,0,1,11.49,23.21,29.4,29.4,0,0,1-30.13,32Z"/>
          <path class="cls-1 ccc" d="M168.72,402.6q-3.3,0-6.61-.21c-30.25-1.91-59.55-16.6-84.72-42.49L2,282.32a7,7,0,1,1,10-9.72l75.42,77.57c22.72,23.37,48.86,36.61,75.61,38.3,28.64,1.78,57.21-10.18,82.41-34.67,49.24-47.88,49.16-106.79-.23-157.59l-75.54-77.74a19.47,19.47,0,0,0-14.52-7.16,15.5,15.5,0,0,0-16.79,17.19,19.34,19.34,0,0,0,6.86,13.67l.48.45L220,219c16.27,16.74,25.05,35.44,25.38,54.08.34,19.38-8.47,38.36-25.47,54.89S183.47,353.06,164,352.17c-18.65-.82-37.11-10.1-53.4-26.85l-24.49-25.2-25.3-26L36.36,248.92a7,7,0,1,1,10-9.74l24.53,25.21C83,276.92,95.74,290,96.11,290.37l24.52,25.23c13.76,14.15,29,22,44,22.64,15.75.64,31-6.13,45.49-20.23s21.53-29,21.25-44.65c-.26-15-7.67-30.46-21.42-44.61l-74.07-76.18a33.24,33.24,0,0,1-11.49-23.21,29.44,29.44,0,0,1,31.14-32,33.4,33.4,0,0,1,24.7,12l74.94,77.08c54.65,56.21,54.63,124.15-.05,177.31C228.93,389.28,199.18,402.6,168.72,402.6Z"/>
        </g>
</svg>